<svg width="71" height="74" viewBox="0 0 71 74" fill="none" xmlns="http://www.w3.org/2000/svg">
<path d="M4.74109 26.1777L7.23718 0.523438H31.6781V8.91309H15.2802L14.3788 19.7295C16.274 18.4583 18.2269 17.8228 20.2377 17.8228C24.3978 17.8228 27.5988 19.3019 29.8407 22.2603C32.1057 25.2186 33.2382 29.4019 33.2382 34.8101C33.2382 39.8716 31.8977 43.9508 29.2167 47.0479C26.5357 50.1449 22.9533 51.6934 18.4696 51.6934C15.8117 51.6934 13.3503 51.0693 11.0853 49.8213C8.82035 48.5501 7.02917 46.7936 5.71179 44.5518C4.41752 42.3099 3.75883 39.7676 3.73572 36.9248H13.4427C13.6045 39.028 14.1246 40.6574 15.0028 41.813C15.8811 42.9686 17.0135 43.5464 18.4003 43.5464C20.0181 43.5464 21.2662 42.7721 22.1444 41.2236C23.0227 39.652 23.4618 37.3177 23.4618 34.2207C23.4618 31.3086 22.9302 29.113 21.8671 27.6338C20.827 26.1546 19.3594 25.415 17.4642 25.415C15.6153 25.415 14.1823 26.0506 13.1654 27.3218L12.5414 28.1885L4.74109 26.1777ZM57.8524 22.7109H67.6635V31.8286H57.8524V45.9385H48.5614V31.8286H38.577V22.7109H48.5614V9.19043H57.8524V22.7109Z" fill="url(#paint0_linear)"/>
<path d="M6.56042 65.6035V73H5.35046V66.6494H3.40222L3.28601 69.1582C3.22221 70.5482 3.03536 71.5348 2.72546 72.1182C2.41557 72.6969 1.91882 72.9909 1.23523 73H0.831909V71.8857L1.13953 71.8584C1.47677 71.8128 1.71375 71.5872 1.85046 71.1816C1.99174 70.7715 2.08516 69.9671 2.13074 68.7686L2.24695 65.6035H6.56042ZM11.1268 73.1367C10.2063 73.1367 9.49988 72.8633 9.00769 72.3164C8.5155 71.765 8.26485 70.9583 8.25574 69.8965V69.001C8.25574 67.8981 8.495 67.0345 8.97351 66.4102C9.45658 65.7812 10.1288 65.4668 10.9901 65.4668C11.856 65.4668 12.5031 65.7425 12.9315 66.2939C13.3599 66.8454 13.5787 67.7044 13.5878 68.8711V69.6641H9.45886V69.835C9.45886 70.6279 9.60697 71.2044 9.9032 71.5645C10.204 71.9245 10.6346 72.1045 11.1952 72.1045C11.5507 72.1045 11.8628 72.0384 12.1317 71.9062C12.4052 71.7695 12.6604 71.5553 12.8973 71.2637L13.5262 72.0293C13.0022 72.7676 12.2024 73.1367 11.1268 73.1367ZM10.9901 66.5059C10.4888 66.5059 10.1174 66.679 9.87585 67.0254C9.63432 67.3672 9.4976 67.9004 9.4657 68.625H12.3778V68.4609C12.3459 67.7591 12.2183 67.2578 11.995 66.957C11.7762 66.6562 11.4413 66.5059 10.9901 66.5059ZM19.6376 66.6289H17.621V73H16.4178V66.6289H14.4286V65.6035H19.6376V66.6289Z" fill="#2E35AC"/>
<defs>
<linearGradient id="paint0_linear" x1="0.442261" y1="2" x2="31.9716" y2="60.6766" gradientUnits="userSpaceOnUse">
<stop stop-color="#D10A42"/>
<stop offset="1" stop-color="#0041CA"/>
</linearGradient>
</defs>
</svg>
