<svg width="109" height="75" viewBox="0 0 109 75" fill="none" xmlns="http://www.w3.org/2000/svg">
<path d="M12.9116 22.2896H17.6611C19.4639 22.2896 20.7812 21.6655 21.6133 20.4175C22.4684 19.1463 22.896 17.4591 22.896 15.356C22.896 13.3452 22.4569 11.7852 21.5786 10.6758C20.7235 9.54329 19.5679 8.97705 18.1118 8.97705C16.7482 8.97705 15.6273 9.50863 14.749 10.5718C13.8939 11.6349 13.4663 12.9754 13.4663 14.5933H3.65527C3.65527 11.9585 4.25618 9.60107 5.45801 7.521C6.68294 5.41781 8.38167 3.77686 10.5542 2.59814C12.7498 1.41943 15.1766 0.830078 17.8345 0.830078C22.48 0.830078 26.1201 2.11279 28.7549 4.67822C31.3896 7.24365 32.707 10.7567 32.707 15.2173C32.707 17.5054 32.1061 19.6317 30.9043 21.5962C29.7256 23.5376 28.1655 25.0283 26.2241 26.0684C28.6047 27.0853 30.3727 28.6107 31.5283 30.6445C32.707 32.6784 33.2964 35.082 33.2964 37.8555C33.2964 42.3392 31.8634 45.9331 28.9976 48.6372C26.1548 51.3413 22.4106 52.6934 17.7651 52.6934C13.4432 52.6934 9.93018 51.3644 7.22607 48.7065C4.54508 46.0256 3.20459 42.5125 3.20459 38.1675H13.0156C13.0156 39.9702 13.4894 41.484 14.437 42.709C15.3846 43.9339 16.5864 44.5464 18.0425 44.5464C19.7297 44.5464 21.0586 43.9224 22.0293 42.6743C23.0231 41.4263 23.52 39.7622 23.52 37.6821C23.52 32.7131 21.5902 30.217 17.7305 30.1938H12.9116V22.2896ZM41.0967 27.1777L43.5928 1.52344H68.0337V9.91309H51.6357L50.7344 20.7295C52.6296 19.4583 54.5825 18.8228 56.5933 18.8228C60.7534 18.8228 63.9544 20.3019 66.1963 23.2603C68.4613 26.2186 69.5938 30.4019 69.5938 35.8101C69.5938 40.8716 68.2533 44.9508 65.5723 48.0479C62.8913 51.1449 59.3089 52.6934 54.8252 52.6934C52.1673 52.6934 49.7059 52.0693 47.4409 50.8213C45.1759 49.5501 43.3848 47.7936 42.0674 45.5518C40.7731 43.3099 40.1144 40.7676 40.0913 37.9248H49.7983C49.9601 40.028 50.4801 41.6574 51.3584 42.813C52.2367 43.9686 53.3691 44.5464 54.7559 44.5464C56.3737 44.5464 57.6217 43.7721 58.5 42.2236C59.3783 40.652 59.8174 38.3177 59.8174 35.2207C59.8174 32.3086 59.2858 30.113 58.2227 28.6338C57.1826 27.1546 55.715 26.415 53.8198 26.415C51.9709 26.415 50.5379 27.0506 49.521 28.3218L48.897 29.1885L41.0967 27.1777ZM105.336 31.1299C105.336 38.1097 104.065 43.4486 101.523 47.1465C99.0037 50.8444 95.3983 52.6934 90.7065 52.6934C86.061 52.6934 82.4671 50.9022 79.9248 47.3198C77.4056 43.7144 76.0998 38.5604 76.0073 31.8579V22.3242C76.0073 15.3675 77.2669 10.0518 79.7861 6.37695C82.3053 2.67904 85.9224 0.830078 90.6372 0.830078C95.3521 0.830078 98.9691 2.65592 101.488 6.30762C104.007 9.95931 105.29 15.1711 105.336 21.9429V31.1299ZM95.4907 20.9028C95.4907 16.9276 95.0978 13.9461 94.312 11.9585C93.5262 9.97087 92.3013 8.97705 90.6372 8.97705C87.5171 8.97705 85.8993 12.6172 85.7837 19.8975V32.4819C85.7837 36.5496 86.1766 39.5773 86.9624 41.5649C87.7713 43.5526 89.0194 44.5464 90.7065 44.5464C92.3013 44.5464 93.48 43.6219 94.2427 41.7729C95.0285 39.9009 95.4445 37.0465 95.4907 33.21V20.9028Z" fill="url(#paint0_linear)"/>
<path d="M5.41406 72.3252L7.39648 66.6035H8.90039V74H7.69727V68.9004L5.83105 74H5.00391L3.09668 68.7773V74H1.89355V66.6035H3.45215L5.41406 72.3252ZM13.4805 74.1367C12.5599 74.1367 11.8535 73.8633 11.3613 73.3164C10.8691 72.765 10.6185 71.9583 10.6094 70.8965V70.001C10.6094 68.8981 10.8486 68.0345 11.3271 67.4102C11.8102 66.7812 12.4824 66.4668 13.3438 66.4668C14.2096 66.4668 14.8568 66.7425 15.2852 67.2939C15.7135 67.8454 15.9323 68.7044 15.9414 69.8711V70.6641H11.8125V70.835C11.8125 71.6279 11.9606 72.2044 12.2568 72.5645C12.5576 72.9245 12.9883 73.1045 13.5488 73.1045C13.9043 73.1045 14.2165 73.0384 14.4854 72.9062C14.7588 72.7695 15.014 72.5553 15.251 72.2637L15.8799 73.0293C15.3558 73.7676 14.556 74.1367 13.4805 74.1367ZM13.3438 67.5059C12.8424 67.5059 12.471 67.679 12.2295 68.0254C11.988 68.3672 11.8512 68.9004 11.8193 69.625H14.7314V69.4609C14.6995 68.7591 14.5719 68.2578 14.3486 67.957C14.1299 67.6562 13.7949 67.5059 13.3438 67.5059ZM19.9678 73.1045C20.3688 73.1045 20.6901 72.9814 20.9316 72.7354C21.1732 72.4847 21.3053 72.1292 21.3281 71.6689H22.4697C22.4424 72.3799 22.1895 72.9701 21.7109 73.4395C21.237 73.9043 20.6559 74.1367 19.9678 74.1367C19.0518 74.1367 18.3522 73.8496 17.8691 73.2754C17.3906 72.6966 17.1514 71.8376 17.1514 70.6982V69.8848C17.1514 68.7682 17.3906 67.9206 17.8691 67.3418C18.3477 66.7585 19.0449 66.4668 19.9609 66.4668C20.7174 66.4668 21.3167 66.7061 21.7588 67.1846C22.2054 67.6631 22.4424 68.3171 22.4697 69.1465H21.3281C21.3008 68.5996 21.1686 68.1895 20.9316 67.916C20.6992 67.6426 20.3757 67.5059 19.9609 67.5059C19.4232 67.5059 19.0244 67.6836 18.7646 68.0391C18.5049 68.39 18.3704 68.9688 18.3613 69.7754V70.7188C18.3613 71.5892 18.4889 72.2044 18.7441 72.5645C19.0039 72.9245 19.4118 73.1045 19.9678 73.1045ZM28.54 67.6289H26.5234V74H25.3203V67.6289H23.3311V66.6035H28.54V67.6289Z" fill="#2E35AC"/>
<defs>
<linearGradient id="paint0_linear" x1="0.881836" y1="3" x2="24.3691" y2="70.4385" gradientUnits="userSpaceOnUse">
<stop stop-color="#D10A42"/>
<stop offset="1" stop-color="#0041CA"/>
</linearGradient>
</defs>
</svg>
