<svg width="73" height="75" viewBox="0 0 73 75" fill="none" xmlns="http://www.w3.org/2000/svg">
<path d="M33.3422 7.17432L17.3949 52H7.02917L23.0458 9.67041H2.79968V1.52344H33.3422V7.17432ZM68.9808 31.1299C68.9808 38.1097 67.7097 43.4486 65.1674 47.1465C62.6482 50.8444 59.0427 52.6934 54.351 52.6934C49.7054 52.6934 46.1115 50.9022 43.5692 47.3198C41.05 43.7144 39.7442 38.5604 39.6517 31.8579V22.3242C39.6517 15.3675 40.9113 10.0518 43.4305 6.37695C45.9497 2.67904 49.5668 0.830078 54.2816 0.830078C58.9965 0.830078 62.6135 2.65592 65.1327 6.30762C67.6519 9.95931 68.9346 15.1711 68.9808 21.9429V31.1299ZM59.1351 20.9028C59.1351 16.9276 58.7422 13.9461 57.9564 11.9585C57.1706 9.97087 55.9457 8.97705 54.2816 8.97705C51.1615 8.97705 49.5437 12.6172 49.4281 19.8975V32.4819C49.4281 36.5496 49.821 39.5773 50.6068 41.5649C51.4157 43.5526 52.6638 44.5464 54.351 44.5464C55.9457 44.5464 57.1244 43.6219 57.8871 41.7729C58.6729 39.9009 59.0889 37.0465 59.1351 33.21V20.9028Z" fill="url(#paint0_linear)"/>
<path d="M4.97449 72.3252L6.95691 66.6035H8.46082V74H7.25769V68.9004L5.39148 74H4.56433L2.6571 68.7773V74H1.45398V66.6035H3.01257L4.97449 72.3252ZM14.203 74C14.1301 73.8405 14.0777 73.5716 14.0458 73.1934C13.6174 73.8223 13.0705 74.1367 12.4052 74.1367C11.7352 74.1367 11.2111 73.9499 10.8329 73.5762C10.4592 73.1979 10.2723 72.667 10.2723 71.9834C10.2723 71.2314 10.5275 70.6344 11.038 70.1924C11.5484 69.7503 12.2479 69.5247 13.1366 69.5156H14.0253V68.7295C14.0253 68.2874 13.9273 67.973 13.7313 67.7861C13.5354 67.5993 13.2369 67.5059 12.8358 67.5059C12.4712 67.5059 12.175 67.6152 11.9471 67.834C11.7193 68.0482 11.6053 68.3216 11.6053 68.6543H10.3954C10.3954 68.276 10.507 67.916 10.7303 67.5742C10.9537 67.2279 11.2544 66.9567 11.6327 66.7607C12.0109 66.5648 12.4325 66.4668 12.8973 66.4668C13.6538 66.4668 14.2281 66.6559 14.62 67.0342C15.0165 67.4079 15.2193 67.9548 15.2284 68.6748V72.4072C15.233 72.9769 15.3104 73.4714 15.4608 73.8906V74H14.203ZM12.5897 73.0361C12.8859 73.0361 13.1685 72.9541 13.4374 72.79C13.7063 72.626 13.9022 72.4209 14.0253 72.1748V70.4111H13.3417C12.7675 70.4202 12.314 70.5501 11.9813 70.8008C11.6486 71.0469 11.4823 71.3932 11.4823 71.8398C11.4823 72.2591 11.5666 72.5645 11.7352 72.7559C11.9038 72.9427 12.1887 73.0361 12.5897 73.0361ZM18.4344 66.6035V72.9678H20.5194V66.6035H21.7225V72.9678H23.8143V66.6035H25.0243V74H17.2177V66.6035H18.4344ZM30.9647 66.6035H32.1678V74H30.9647V68.6064L28.285 74H27.0751V66.6035H28.285V72.0039L30.9647 66.6035ZM39.2977 74H38.0946V70.8418H35.4286V74H34.2118V66.6035H35.4286V69.8096H38.0946V66.6035H39.2977V74Z" fill="#2E35AC"/>
<defs>
<linearGradient id="paint0_linear" x1="0.442261" y1="3" x2="31.4767" y2="62.4057" gradientUnits="userSpaceOnUse">
<stop stop-color="#D10A42"/>
<stop offset="1" stop-color="#0041CA"/>
</linearGradient>
</defs>
</svg>
