<svg width="109" height="75" viewBox="0 0 109 75" fill="none" xmlns="http://www.w3.org/2000/svg">
<path d="M23.2035 32.4819C21.1234 34.6082 18.8469 35.6714 16.3739 35.6714C12.5373 35.6714 9.50964 34.1344 7.29089 31.0605C5.09526 27.9635 3.99744 23.8381 3.99744 18.6841C3.99744 15.356 4.62146 12.3167 5.86951 9.56641C7.11755 6.79297 8.85095 4.64355 11.0697 3.11816C13.3116 1.59277 15.8077 0.830078 18.558 0.830078C21.4008 0.830078 23.9315 1.67367 26.1503 3.36084C28.369 5.04801 30.0909 7.47477 31.3158 10.6411C32.5407 13.7843 33.1532 17.3667 33.1532 21.3882V24.959C33.1532 33.5566 31.258 40.2822 27.4677 45.1357C23.7004 49.9661 18.35 52.4276 11.4164 52.52H10.411V44.061H11.0697C14.9063 44.0379 17.7837 43.0441 19.702 41.0796C21.6434 39.1151 22.8106 36.2492 23.2035 32.4819ZM18.87 27.9751C20.7652 27.9751 22.2559 26.6808 23.3422 24.0923V19.5854C23.3422 16.2804 22.8915 13.6919 21.9901 11.8198C21.0887 9.92464 19.9216 8.97705 18.4886 8.97705C17.0788 8.97705 15.9348 9.91309 15.0565 11.7852C14.2014 13.6341 13.7738 15.8991 13.7738 18.5801C13.7738 21.4922 14.2245 23.7918 15.1259 25.479C16.0272 27.1431 17.2753 27.9751 18.87 27.9751ZM69.4159 31.1299C69.4159 38.1097 68.1447 43.4486 65.6024 47.1465C63.0832 50.8444 59.4777 52.6934 54.786 52.6934C50.1405 52.6934 46.5466 50.9022 44.0043 47.3198C41.4851 43.7144 40.1792 38.5604 40.0868 31.8579V22.3242C40.0868 15.3675 41.3464 10.0518 43.8656 6.37695C46.3848 2.67904 50.0018 0.830078 54.7167 0.830078C59.4315 0.830078 63.0485 2.65592 65.5677 6.30762C68.087 9.95931 69.3697 15.1711 69.4159 21.9429V31.1299ZM59.5702 20.9028C59.5702 16.9276 59.1773 13.9461 58.3915 11.9585C57.6057 9.97087 56.3807 8.97705 54.7167 8.97705C51.5966 8.97705 49.9787 12.6172 49.8632 19.8975V32.4819C49.8632 36.5496 50.2561 39.5773 51.0419 41.5649C51.8508 43.5526 53.0988 44.5464 54.786 44.5464C56.3807 44.5464 57.5594 43.6219 58.3221 41.7729C59.108 39.9009 59.524 37.0465 59.5702 33.21V20.9028ZM105.332 31.1299C105.332 38.1097 104.061 43.4486 101.518 47.1465C98.9992 50.8444 95.3938 52.6934 90.702 52.6934C86.0565 52.6934 82.4626 50.9022 79.9203 47.3198C77.4011 43.7144 76.0953 38.5604 76.0028 31.8579V22.3242C76.0028 15.3675 77.2624 10.0518 79.7816 6.37695C82.3008 2.67904 85.9178 0.830078 90.6327 0.830078C95.3475 0.830078 98.9646 2.65592 101.484 6.30762C104.003 9.95931 105.286 15.1711 105.332 21.9429V31.1299ZM95.4862 20.9028C95.4862 16.9276 95.0933 13.9461 94.3075 11.9585C93.5217 9.97087 92.2968 8.97705 90.6327 8.97705C87.5126 8.97705 85.8947 12.6172 85.7792 19.8975V32.4819C85.7792 36.5496 86.1721 39.5773 86.9579 41.5649C87.7668 43.5526 89.0149 44.5464 90.702 44.5464C92.2968 44.5464 93.4755 43.6219 94.2382 41.7729C95.024 39.9009 95.44 37.0465 95.4862 33.21V20.9028Z" fill="url(#paint0_linear)"/>
<path d="M3.78943 70.8486H3.10583V74H1.89587V66.6035H3.10583V69.7344H3.7074L5.724 66.6035H7.16638L4.69861 70.124L7.34412 74H5.82654L3.78943 70.8486ZM8.6156 74V66.6035H11.097C11.9447 66.6035 12.5918 66.7767 13.0385 67.123C13.4851 67.4694 13.7084 67.973 13.7084 68.6338C13.7084 68.9756 13.6195 69.2832 13.4418 69.5566C13.264 69.8301 13.0043 70.0397 12.6625 70.1855C13.0407 70.2858 13.3438 70.4886 13.5717 70.7939C13.8041 71.0993 13.9203 71.4684 13.9203 71.9014C13.9203 72.585 13.7061 73.1068 13.2777 73.4668C12.8539 73.8223 12.2523 74 11.473 74H8.6156ZM9.81873 70.7529V72.9814H11.4867C12.3024 72.9814 12.7103 72.6077 12.7103 71.8604C12.7103 71.1221 12.2979 70.7529 11.473 70.7529H9.81873ZM9.81873 69.7412H11.0834C12.0267 69.7412 12.4984 69.3949 12.4984 68.7021C12.4984 68.0049 12.0541 67.6471 11.1654 67.6289H9.81873V69.7412ZM15.8959 74.8545H14.8705L18.3636 64.0469H19.3822L15.8959 74.8545ZM24.3861 72.3252L26.3685 66.6035H27.8724V74H26.6693V68.9004L24.8031 74H23.976L22.0687 68.7773V74H20.8656V66.6035H22.4242L24.3861 72.3252Z" fill="#2E35AC"/>
<defs>
<linearGradient id="paint0_linear" x1="0.877319" y1="3" x2="23.3281" y2="41.0913" gradientUnits="userSpaceOnUse">
<stop stop-color="#D10A42"/>
<stop offset="1" stop-color="#0041CA"/>
</linearGradient>
</defs>
</svg>
